<svg width="50" height="50" viewBox="0 0 50 50" fill="none" xmlns="http://www.w3.org/2000/svg">
<rect width="50" height="50" rx="25" fill="url(#paint0_linear_14_40)"/>
<path d="M25 15.375C22.995 15.3774 21.0729 16.1749 19.6551 17.5926C18.2374 19.0103 17.4399 20.9325 17.4375 22.9375C17.4351 24.576 17.9703 26.17 18.961 27.475C18.961 27.475 19.1673 27.7466 19.2009 27.7858L25 34.625L30.8018 27.7823C30.8321 27.7459 31.039 27.475 31.039 27.475L31.0397 27.4729C32.0299 26.1685 32.5649 24.5752 32.5625 22.9375C32.5601 20.9325 31.7626 19.0103 30.3449 17.5926C28.9272 16.1749 27.005 15.3774 25 15.375ZM25 25.6875C24.4561 25.6875 23.9244 25.5262 23.4722 25.224C23.02 24.9219 22.6675 24.4924 22.4593 23.9899C22.2512 23.4874 22.1967 22.9344 22.3028 22.401C22.409 21.8676 22.6709 21.3776 23.0555 20.993C23.4401 20.6084 23.9301 20.3464 24.4635 20.2403C24.997 20.1342 25.5499 20.1887 26.0524 20.3968C26.5549 20.605 26.9844 20.9574 27.2865 21.4097C27.5887 21.8619 27.75 22.3936 27.75 22.9375C27.7491 23.6666 27.4591 24.3655 26.9435 24.881C26.428 25.3966 25.7291 25.6866 25 25.6875Z" fill="white"/>
<defs>
<linearGradient id="paint0_linear_14_40" x1="25" y1="0" x2="25" y2="50" gradientUnits="userSpaceOnUse">
<stop stop-color="#2FDA55"/>
<stop offset="1" stop-color="#14F546"/>
</linearGradient>
</defs>
</svg>
