<svg width="50" height="50" viewBox="0 0 50 50" fill="none" xmlns="http://www.w3.org/2000/svg">
<rect width="50" height="50" rx="25" fill="url(#paint0_linear_14_42)"/>
<path d="M27.9769 28.7675L29.5169 27.2275C29.7243 27.0227 29.9867 26.8824 30.2723 26.8238C30.5579 26.7653 30.8543 26.7909 31.1256 26.8975L33.0025 27.6469C33.2767 27.7582 33.5118 27.9481 33.6782 28.1928C33.8446 28.4375 33.9348 28.726 33.9375 29.0219V32.4594C33.9359 32.6607 33.8936 32.8595 33.8131 33.044C33.7326 33.2285 33.6156 33.3948 33.4692 33.5329C33.3227 33.671 33.1499 33.7781 32.961 33.8476C32.7721 33.9171 32.571 33.9477 32.37 33.9375C19.2181 33.1194 16.5644 21.9819 16.0625 17.7194C16.0392 17.5101 16.0605 17.2982 16.125 17.0977C16.1894 16.8972 16.2956 16.7126 16.4365 16.5561C16.5775 16.3996 16.7499 16.2747 16.9426 16.1896C17.1353 16.1045 17.3438 16.0612 17.5544 16.0625H20.875C21.1713 16.0634 21.4606 16.1529 21.7056 16.3195C21.9507 16.4861 22.1403 16.7222 22.25 16.9975L22.9994 18.8744C23.1095 19.1446 23.1377 19.4413 23.0802 19.7274C23.0227 20.0135 22.8822 20.2764 22.6762 20.4831L21.1363 22.0231C21.1363 22.0231 22.0231 28.025 27.9769 28.7675Z" fill="white"/>
<defs>
<linearGradient id="paint0_linear_14_42" x1="25" y1="0" x2="25" y2="50" gradientUnits="userSpaceOnUse">
<stop stop-color="#2FDA55"/>
<stop offset="1" stop-color="#14F546"/>
</linearGradient>
</defs>
</svg>
