<svg width="214" height="62" viewBox="0 0 214 62" fill="none" xmlns="http://www.w3.org/2000/svg">
<path d="M2.835 0.550049H19.71V6.53505H10.89V37.0001H2.835V0.550049Z" fill="white"/>
<path d="M23.5301 0.550049H45.3551V37.0001H37.4351V6.31005H31.4501V37.0001H23.5301V0.550049Z" fill="white"/>
<path d="M51.2712 0.550049H59.9112L63.9162 21.7451L68.2362 0.550049H76.5612L77.1912 37.0001H71.4762L70.8012 12.7451L66.5712 37.0001H61.4862L56.9862 12.5651L56.4462 37.0001H50.6412L51.2712 0.550049Z" fill="white"/>
<path d="M82.6407 18.8651H94.2957V23.545H82.6407V18.8651Z" fill="white"/>
<path d="M120.204 37.0001H99.9541V0.550049H108.009V31.5551H114.129V0.550049H122.184V31.5551H127.134V44.8751H121.239L120.204 37.0001Z" fill="white"/>
<path d="M138.769 37.4501C135.919 37.4501 133.699 36.7001 132.109 35.2001C130.519 33.6701 129.724 31.5251 129.724 28.7651V19.2251C129.724 16.4651 130.519 14.3351 132.109 12.8351C133.699 11.3051 135.919 10.5401 138.769 10.5401C141.649 10.5401 143.809 11.2751 145.249 12.7451C146.689 14.2151 147.409 16.3751 147.409 19.2251V24.4451H136.969V29.4401C136.969 31.3001 137.569 32.2301 138.769 32.2301C140.029 32.2301 140.659 31.3901 140.659 29.7101V26.9651H147.409V29.4851C147.409 32.0951 146.644 34.0751 145.114 35.4251C143.614 36.7751 141.499 37.4501 138.769 37.4501ZM140.659 21.0251V18.4151C140.659 17.4551 140.479 16.7801 140.119 16.39C139.789 15.97 139.324 15.76 138.724 15.76C138.154 15.76 137.719 15.9851 137.419 16.4351C137.119 16.8851 136.969 17.6801 136.969 18.8201V21.0251H140.659Z" fill="white"/>
<path d="M151.401 10.9901H158.736V21.0701H163.101V10.9901H170.481V37.0001H163.101V26.1101H158.736V37.0001H151.401V10.9901Z" fill="white"/>
<path d="M178.194 15.9401H173.469V10.9901H190.209V15.9401H185.484V37.0001H178.194V15.9401Z" fill="white"/>
<path d="M193.281 10.9901H200.616V12.8801C201.456 12.1 202.371 11.515 203.361 11.125C204.351 10.7351 205.311 10.5401 206.241 10.5401C208.131 10.5401 209.526 11.2451 210.426 12.6551C211.356 14.0651 211.821 15.91 211.821 18.1901V29.3951C211.821 31.8851 211.326 33.8501 210.336 35.2901C209.346 36.7301 207.951 37.4501 206.151 37.4501C204.321 37.4501 202.476 36.6401 200.616 35.0201V45.5501H193.281V10.9901ZM202.551 32.7251C203.211 32.7251 203.691 32.4551 203.991 31.9151C204.321 31.3751 204.486 30.6701 204.486 29.8001V17.6501C204.486 16.8701 204.336 16.2251 204.036 15.7151C203.736 15.2051 203.286 14.9501 202.686 14.9501C201.966 14.9501 201.276 15.2501 200.616 15.85V32.0501C201.306 32.5001 201.951 32.7251 202.551 32.7251Z" fill="white"/>
<path d="M0.703125 53.6485C0.703125 52.836 0.859375 52.1042 1.17188 51.4532C1.48958 50.8021 1.9349 50.2969 2.50781 49.9376C3.08594 49.573 3.73958 49.3907 4.46875 49.3907C5.59375 49.3907 6.50521 49.7865 7.20312 50.5782C7.90104 51.3646 8.25 52.4089 8.25 53.711V53.9063C8.25 54.724 8.09115 55.461 7.77344 56.1172C7.46094 56.7683 7.01823 57.2709 6.44531 57.6251C5.8724 57.9792 5.21875 58.1563 4.48438 58.1563C3.36458 58.1563 2.45312 57.7631 1.75 56.9766C1.05208 56.1849 0.703125 55.1381 0.703125 53.836V53.6485ZM1.64062 53.9063C1.64062 54.9167 1.90104 55.7474 2.42188 56.3985C2.94792 57.0443 3.63542 57.3672 4.48438 57.3672C5.32812 57.3672 6.01042 57.0443 6.53125 56.3985C7.05729 55.7474 7.32031 54.8907 7.32031 53.8282V53.6485C7.32031 53.0027 7.20052 52.4115 6.96094 51.8751C6.72135 51.3386 6.38542 50.9245 5.95312 50.6329C5.52083 50.336 5.02604 50.1876 4.46875 50.1876C3.63542 50.1876 2.95573 50.5157 2.42969 51.1719C1.90365 51.823 1.64062 52.6771 1.64062 53.7344V53.9063Z" fill="white"/>
<path d="M9.51594 53.8438C9.51594 52.4688 9.78417 51.3829 10.3206 50.586C10.8623 49.7891 11.6097 49.3907 12.5628 49.3907C13.1097 49.3907 13.5732 49.5131 13.9534 49.7579V46.0001H14.8831V49.7891C15.2685 49.5235 15.7477 49.3907 16.3206 49.3907C17.2217 49.3907 17.943 49.7527 18.4847 50.4766C19.0264 51.2006 19.3206 52.2084 19.3675 53.5001L19.3753 54.0079C19.3753 55.2943 19.1045 56.3099 18.5628 57.0547C18.0211 57.7943 17.279 58.1641 16.3363 58.1641C15.7738 58.1641 15.2894 58.0417 14.8831 57.7969V61.2501H13.9534V57.8047C13.5524 58.0443 13.0836 58.1641 12.5472 58.1641C11.6566 58.1641 10.943 57.8282 10.4066 57.1563C9.8701 56.4792 9.57583 55.5443 9.52375 54.3516L9.51594 53.8438ZM18.4456 53.8438C18.4456 52.7084 18.2399 51.8152 17.8284 51.1641C17.4222 50.5131 16.8519 50.1876 16.1175 50.1876C15.5863 50.1876 15.1748 50.3021 14.8831 50.5313V57.0704C15.2113 57.2735 15.6279 57.3751 16.1331 57.3751C16.8623 57.3751 17.43 57.0834 17.8363 56.5001C18.2425 55.9115 18.4456 55.0261 18.4456 53.8438ZM10.4534 54.0079C10.4534 55.0704 10.6488 55.8985 11.0394 56.4922C11.43 57.0808 11.9925 57.3751 12.7269 57.3751C13.2165 57.3751 13.6253 57.2683 13.9534 57.0547V50.5079C13.6514 50.2943 13.2477 50.1876 12.7425 50.1876C12.0133 50.1876 11.4482 50.5131 11.0472 51.1641C10.6514 51.8099 10.4534 52.7579 10.4534 54.0079Z" fill="white"/>
<path d="M26.6959 49.5469H27.6334V58.0001H26.6959V51.0547L22.1334 58.0001H21.2038V49.5469H22.1334V56.5001L26.6959 49.5469Z" fill="white"/>
<path d="M29.8838 49.5469H30.8213V57.211H35.3759V49.5469H36.3134V57.211H37.1728L37.1025 60.5079H36.2431V58.0001H29.8838V49.5469Z" fill="white"/>
<path d="M44.1653 49.5469H45.1028V58.0001H44.1653V51.0547L39.6028 58.0001H38.6731V49.5469H39.6028V56.5001L44.1653 49.5469Z" fill="white"/>
<path d="M52.6266 58.0001C52.5328 57.7344 52.4729 57.3412 52.4469 56.8204C52.1188 57.2474 51.6995 57.5782 51.1891 57.8126C50.6839 58.0417 50.1474 58.1563 49.5797 58.1563C48.7672 58.1563 48.1083 57.9297 47.6031 57.4766C47.1031 57.0235 46.8531 56.4506 46.8531 55.7579C46.8531 54.9349 47.1943 54.2839 47.8766 53.8047C48.5641 53.3256 49.5198 53.086 50.7438 53.086H52.4391V52.1251C52.4391 51.5209 52.2516 51.0469 51.8766 50.7032C51.5068 50.3542 50.9651 50.1797 50.2516 50.1797C49.6005 50.1797 49.0615 50.3464 48.6344 50.6797C48.2073 51.0131 47.9938 51.4141 47.9938 51.8829L47.0563 51.8751C47.0563 51.2032 47.3688 50.6224 47.9938 50.1329C48.6188 49.6381 49.387 49.3907 50.2984 49.3907C51.2411 49.3907 51.9833 49.6277 52.525 50.1016C53.0719 50.5704 53.3531 51.2266 53.3688 52.0704V56.0704C53.3688 56.8881 53.4547 57.5001 53.6266 57.9063V58.0001H52.6266ZM49.6891 57.3282C50.3141 57.3282 50.8714 57.1771 51.3609 56.8751C51.8557 56.573 52.2151 56.1693 52.4391 55.6641V53.8047H50.7672C49.8349 53.8152 49.1057 53.987 48.5797 54.3204C48.0536 54.6485 47.7906 55.1016 47.7906 55.6797C47.7906 56.1537 47.9651 56.5469 48.3141 56.8594C48.6682 57.1719 49.1266 57.3282 49.6891 57.3282Z" fill="white"/>
<path d="M62.0488 49.5469V58.0001H61.1113V50.3516H57.6503L57.5019 53.5157C57.4394 54.6876 57.3222 55.5834 57.1503 56.2032C56.9784 56.8178 56.7232 57.2709 56.3847 57.5626C56.0461 57.8542 55.5956 58.0001 55.0331 58.0001H54.6738V57.1719L54.9628 57.1563C55.4993 57.1459 55.8847 56.8855 56.1191 56.3751C56.3534 55.8646 56.5071 54.9532 56.58 53.6407L56.7519 49.5469H62.0488Z" fill="white"/>
<path d="M65.2756 52.6172H67.7131C68.3381 52.6172 68.885 52.7318 69.3537 52.961C69.8277 53.1849 70.1845 53.4974 70.4241 53.8985C70.6688 54.2995 70.7912 54.7657 70.7912 55.2969C70.7912 56.1146 70.51 56.7709 69.9475 57.2657C69.3902 57.7553 68.635 58.0001 67.6819 58.0001H64.3459V49.5469H65.2756V52.6172ZM65.2756 53.4141V57.211H67.6975C68.3694 57.211 68.8954 57.0417 69.2756 56.7032C69.661 56.3646 69.8537 55.9011 69.8537 55.3126C69.8537 54.7501 69.6662 54.2969 69.2912 53.9532C68.9215 53.6042 68.4136 53.4245 67.7678 53.4141H65.2756Z" fill="white"/>
<path d="M78.9791 58.0001H78.0416V54.1251H73.4869V58.0001H72.5494V49.5469H73.4869V53.336H78.0416V49.5469H78.9791V58.0001Z" fill="white"/>
<path d="M82.1981 52.6172H84.6356C85.2606 52.6172 85.8075 52.7318 86.2763 52.961C86.7502 53.1849 87.107 53.4974 87.3466 53.8985C87.5914 54.2995 87.7138 54.7657 87.7138 55.2969C87.7138 56.1146 87.4325 56.7709 86.87 57.2657C86.3127 57.7553 85.5575 58.0001 84.6044 58.0001H81.2684V49.5469H82.1981V52.6172ZM82.1981 53.4141V57.211H84.62C85.2919 57.211 85.8179 57.0417 86.1981 56.7032C86.5835 56.3646 86.7763 55.9011 86.7763 55.3126C86.7763 54.7501 86.5888 54.2969 86.2138 53.9532C85.844 53.6042 85.3361 53.4245 84.6903 53.4141H82.1981ZM90.5809 58.0001H89.6434V49.5469H90.5809V58.0001Z" fill="white"/>
<path d="M98.4172 49.5469H99.3547V58.0001H98.4172V51.0547L93.8547 58.0001H92.925V49.5469H93.8547V56.5001L98.4172 49.5469ZM98.3703 46.5001C98.3703 47.099 98.1646 47.5834 97.7531 47.9532C97.3469 48.323 96.8 48.5079 96.1125 48.5079C95.4354 48.5079 94.8885 48.3256 94.4719 47.961C94.0604 47.5912 93.8547 47.1042 93.8547 46.5001H94.6516C94.6516 46.9323 94.7792 47.2631 95.0344 47.4922C95.2948 47.7214 95.6542 47.836 96.1125 47.836C96.5708 47.836 96.9276 47.7162 97.1828 47.4766C97.4432 47.237 97.5734 46.9115 97.5734 46.5001H98.3703Z" fill="white"/>
<path d="M104.918 57.211L105.332 56.6719C105.988 55.7813 106.366 54.4792 106.465 52.7657L106.613 49.5469H111.605V57.211H112.48V60.4844H111.551V58.0001H105.199V60.4844H104.301L104.308 57.211H104.918ZM105.996 57.211H110.668V50.4219H107.504L107.402 52.6172C107.308 54.6329 106.84 56.1641 105.996 57.211Z" fill="white"/>
<path d="M119.52 49.5469H120.457V58.0001H119.52V51.0547L114.957 58.0001H114.027V49.5469H114.957V56.5001L119.52 49.5469Z" fill="white"/>
<path d="M129.145 49.5469V58.0001H128.207V50.3516H124.747L124.598 53.5157C124.536 54.6876 124.418 55.5834 124.247 56.2032C124.075 56.8178 123.819 57.2709 123.481 57.5626C123.142 57.8542 122.692 58.0001 122.129 58.0001H121.77V57.1719L122.059 57.1563C122.596 57.1459 122.981 56.8855 123.215 56.3751C123.45 55.8646 123.603 54.9532 123.676 53.6407L123.848 49.5469H129.145Z" fill="white"/>
<path d="M134.614 58.1563C133.895 58.1563 133.244 57.9792 132.661 57.6251C132.083 57.2709 131.632 56.7787 131.309 56.1485C130.986 55.5131 130.825 54.8021 130.825 54.0157V53.6797C130.825 52.8672 130.981 52.1355 131.294 51.4844C131.611 50.8334 132.052 50.323 132.614 49.9532C133.177 49.5782 133.786 49.3907 134.442 49.3907C135.468 49.3907 136.281 49.7422 136.88 50.4454C137.484 51.1433 137.786 52.099 137.786 53.3126V53.836H131.755V54.0157C131.755 54.974 132.028 55.7735 132.575 56.4141C133.127 57.0495 133.82 57.3672 134.653 57.3672C135.153 57.3672 135.593 57.2761 135.973 57.0938C136.359 56.9115 136.708 56.6198 137.02 56.2188L137.606 56.6641C136.919 57.6589 135.921 58.1563 134.614 58.1563ZM134.442 50.1876C133.739 50.1876 133.145 50.4454 132.661 50.961C132.182 51.4766 131.89 52.1693 131.786 53.0391H136.856V52.9376C136.83 52.1251 136.598 51.4636 136.161 50.9532C135.723 50.4428 135.151 50.1876 134.442 50.1876Z" fill="white"/>
<path d="M146.083 53.8594C146.083 55.1771 145.791 56.224 145.208 57.0001C144.625 57.7709 143.844 58.1563 142.864 58.1563C141.708 58.1563 140.823 57.7501 140.208 56.9376V61.2501H139.278V49.5469H140.146L140.193 50.7422C140.802 49.8412 141.685 49.3907 142.841 49.3907C143.851 49.3907 144.643 49.7735 145.216 50.5391C145.794 51.3047 146.083 52.3672 146.083 53.7266V53.8594ZM145.146 53.6954C145.146 52.6172 144.924 51.7657 144.482 51.1407C144.039 50.5157 143.422 50.2032 142.63 50.2032C142.057 50.2032 141.565 50.3412 141.153 50.6172C140.742 50.8933 140.427 51.2943 140.208 51.8204V55.8751C140.432 56.3594 140.752 56.7292 141.169 56.9844C141.586 57.2396 142.078 57.3672 142.646 57.3672C143.432 57.3672 144.044 57.0547 144.482 56.4297C144.924 55.7995 145.146 54.8881 145.146 53.6954Z" fill="white"/>
<path d="M152.06 57.1876H159.084V58.0001H150.896V57.2735L157.646 47.4454H151.099V46.6251H158.834V47.3126L152.06 57.1876Z" fill="white"/>
<path d="M159.982 53.6485C159.982 52.836 160.139 52.1042 160.451 51.4532C160.769 50.8021 161.214 50.2969 161.787 49.9376C162.365 49.573 163.019 49.3907 163.748 49.3907C164.873 49.3907 165.785 49.7865 166.482 50.5782C167.18 51.3646 167.529 52.4089 167.529 53.711V53.9063C167.529 54.724 167.371 55.461 167.053 56.1172C166.74 56.7683 166.298 57.2709 165.725 57.6251C165.152 57.9792 164.498 58.1563 163.764 58.1563C162.644 58.1563 161.732 57.7631 161.029 56.9766C160.331 56.1849 159.982 55.1381 159.982 53.836V53.6485ZM160.92 53.9063C160.92 54.9167 161.18 55.7474 161.701 56.3985C162.227 57.0443 162.915 57.3672 163.764 57.3672C164.607 57.3672 165.29 57.0443 165.811 56.3985C166.337 55.7474 166.6 54.8907 166.6 53.8282V53.6485C166.6 53.0027 166.48 52.4115 166.24 51.8751C166.001 51.3386 165.665 50.9245 165.232 50.6329C164.8 50.336 164.305 50.1876 163.748 50.1876C162.915 50.1876 162.235 50.5157 161.709 51.1719C161.183 51.823 160.92 52.6771 160.92 53.7344V53.9063Z" fill="white"/>
<path d="M168.631 53.6485C168.631 52.836 168.788 52.1042 169.1 51.4532C169.418 50.8021 169.863 50.2969 170.436 49.9376C171.014 49.573 171.668 49.3907 172.397 49.3907C173.522 49.3907 174.433 49.7865 175.131 50.5782C175.829 51.3646 176.178 52.4089 176.178 53.711V53.9063C176.178 54.724 176.019 55.461 175.702 56.1172C175.389 56.7683 174.946 57.2709 174.373 57.6251C173.801 57.9792 173.147 58.1563 172.413 58.1563C171.293 58.1563 170.381 57.7631 169.678 56.9766C168.98 56.1849 168.631 55.1381 168.631 53.836V53.6485ZM169.569 53.9063C169.569 54.9167 169.829 55.7474 170.35 56.3985C170.876 57.0443 171.564 57.3672 172.413 57.3672C173.256 57.3672 173.939 57.0443 174.459 56.3985C174.985 55.7474 175.248 54.8907 175.248 53.8282V53.6485C175.248 53.0027 175.129 52.4115 174.889 51.8751C174.649 51.3386 174.314 50.9245 173.881 50.6329C173.449 50.336 172.954 50.1876 172.397 50.1876C171.564 50.1876 170.884 50.5157 170.358 51.1719C169.832 51.823 169.569 52.6771 169.569 53.7344V53.9063Z" fill="white"/>
<path d="M178.647 49.5469L178.678 50.9219C178.991 50.4115 179.382 50.0287 179.85 49.7735C180.319 49.5183 180.84 49.3907 181.413 49.3907C182.746 49.3907 183.592 49.9376 183.952 51.0313C184.254 50.5053 184.658 50.1016 185.163 49.8204C185.668 49.5339 186.225 49.3907 186.835 49.3907C188.647 49.3907 189.572 50.3803 189.608 52.3594V58.0001H188.671V52.4297C188.665 51.6745 188.501 51.1146 188.178 50.7501C187.861 50.3855 187.34 50.2032 186.616 50.2032C185.944 50.2136 185.376 50.4323 184.913 50.8594C184.449 51.2813 184.191 51.7969 184.139 52.4063V58.0001H183.202V52.3594C183.197 51.6355 183.025 51.0964 182.686 50.7422C182.353 50.3829 181.837 50.2032 181.139 50.2032C180.551 50.2032 180.046 50.3724 179.624 50.711C179.202 51.0443 178.889 51.5417 178.686 52.2032V58.0001H177.749V49.5469H178.647Z" fill="white"/>
<path d="M192.71 58.0001H191.773V46.0001H192.71V58.0001Z" fill="white"/>
<path d="M195.984 58.0001H195.046V49.5469H195.984V58.0001ZM194.882 47.1016C194.882 46.9245 194.939 46.7761 195.054 46.6563C195.169 46.5313 195.325 46.4688 195.523 46.4688C195.721 46.4688 195.877 46.5313 195.992 46.6563C196.111 46.7761 196.171 46.9245 196.171 47.1016C196.171 47.2787 196.111 47.4271 195.992 47.5469C195.877 47.6667 195.721 47.7266 195.523 47.7266C195.325 47.7266 195.169 47.6667 195.054 47.5469C194.939 47.4271 194.882 47.2787 194.882 47.1016Z" fill="white"/>
<path d="M197.695 53.6485C197.695 52.836 197.851 52.1042 198.164 51.4532C198.481 50.8021 198.927 50.2969 199.5 49.9376C200.078 49.573 200.731 49.3907 201.461 49.3907C202.586 49.3907 203.497 49.7865 204.195 50.5782C204.893 51.3646 205.242 52.4089 205.242 53.711V53.9063C205.242 54.724 205.083 55.461 204.765 56.1172C204.453 56.7683 204.01 57.2709 203.437 57.6251C202.864 57.9792 202.211 58.1563 201.476 58.1563C200.356 58.1563 199.445 57.7631 198.742 56.9766C198.044 56.1849 197.695 55.1381 197.695 53.836V53.6485ZM198.633 53.9063C198.633 54.9167 198.893 55.7474 199.414 56.3985C199.94 57.0443 200.627 57.3672 201.476 57.3672C202.32 57.3672 203.002 57.0443 203.523 56.3985C204.049 55.7474 204.312 54.8907 204.312 53.8282V53.6485C204.312 53.0027 204.192 52.4115 203.953 51.8751C203.713 51.3386 203.377 50.9245 202.945 50.6329C202.513 50.336 202.018 50.1876 201.461 50.1876C200.627 50.1876 199.948 50.5157 199.422 51.1719C198.896 51.823 198.633 52.6771 198.633 53.7344V53.9063Z" fill="white"/>
<path d="M207.75 49.5469L207.781 50.9922C208.099 50.4714 208.495 50.0756 208.969 49.8047C209.443 49.5287 209.966 49.3907 210.539 49.3907C211.445 49.3907 212.12 49.6459 212.562 50.1563C213.005 50.6667 213.229 51.4323 213.234 52.4532V58.0001H212.305V52.4454C212.299 51.6902 212.138 51.1277 211.82 50.7579C211.508 50.3881 211.005 50.2032 210.312 50.2032C209.734 50.2032 209.221 50.3855 208.773 50.7501C208.331 51.1094 208.003 51.5964 207.789 52.211V58.0001H206.859V49.5469H207.75Z" fill="white"/>
</svg>
